<?xml version="1.0" encoding="UTF-8" standalone="no"?>
<svg
   xmlns:dc="http://purl.org/dc/elements/1.1/"
   xmlns:cc="http://creativecommons.org/ns#"
   xmlns:rdf="http://www.w3.org/1999/02/22-rdf-syntax-ns#"
   xmlns:svg="http://www.w3.org/2000/svg"
   xmlns="http://www.w3.org/2000/svg"
   xmlns:sodipodi="http://sodipodi.sourceforge.net/DTD/sodipodi-0.dtd"
   xmlns:inkscape="http://www.inkscape.org/namespaces/inkscape"
   version="1.1"
   id="Capa_1"
   x="0px"
   y="0px"
   viewBox="0 0 512 512"
   xml:space="preserve"
   sodipodi:docname="history.svg"
   width="512"
   height="512"
   inkscape:version="1.0.1 (3bc2e813f5, 2020-09-07)"><metadata
   id="metadata185"><rdf:RDF><cc:Work
       rdf:about=""><dc:format>image/svg+xml</dc:format><dc:type
         rdf:resource="http://purl.org/dc/dcmitype/StillImage" /><dc:title></dc:title></cc:Work></rdf:RDF></metadata><defs
   id="defs183">
	

		
		
		
		
		
		
		
		
		
		
		
		
		
	</defs><sodipodi:namedview
   pagecolor="#ffffff"
   bordercolor="#666666"
   borderopacity="1"
   objecttolerance="10"
   gridtolerance="10"
   guidetolerance="10"
   inkscape:pageopacity="0"
   inkscape:pageshadow="2"
   inkscape:window-width="1366"
   inkscape:window-height="739"
   id="namedview181"
   showgrid="false"
   showborder="true"
   fit-margin-top="0"
   fit-margin-left="0"
   fit-margin-right="0"
   fit-margin-bottom="0"
   inkscape:zoom="0.36736407"
   inkscape:cx="328.92798"
   inkscape:cy="35.764974"
   inkscape:window-x="0"
   inkscape:window-y="0"
   inkscape:window-maximized="1"
   inkscape:current-layer="Capa_1"
   inkscape:document-rotation="0" />

<g
   id="g150"
   transform="translate(0,-8)">
</g>
<g
   id="g152"
   transform="translate(0,-8)">
</g>
<g
   id="g154"
   transform="translate(0,-8)">
</g>
<g
   id="g156"
   transform="translate(0,-8)">
</g>
<g
   id="g158"
   transform="translate(0,-8)">
</g>
<g
   id="g160"
   transform="translate(0,-8)">
</g>
<g
   id="g162"
   transform="translate(0,-8)">
</g>
<g
   id="g164"
   transform="translate(0,-8)">
</g>
<g
   id="g166"
   transform="translate(0,-8)">
</g>
<g
   id="g168"
   transform="translate(0,-8)">
</g>
<g
   id="g170"
   transform="translate(0,-8)">
</g>
<g
   id="g172"
   transform="translate(0,-8)">
</g>
<g
   id="g174"
   transform="translate(0,-8)">
</g>
<g
   id="g176"
   transform="translate(0,-8)">
</g>
<g
   id="g178"
   transform="translate(0,-8)">
</g>
<g
   id="g1654"><path
     inkscape:connector-curvature="0"
     id="path121"
     d="M 458.50664,6.761056 H 115.80309 c -25.811804,0 -46.732298,20.904916 -46.732298,46.732302 V 84.648226 H 53.493358 c -25.811808,0 -46.732302,20.904914 -46.732302,46.732304 v 311.54868 c 0,34.41055 27.899184,62.30973 62.309736,62.30973 H 442.92921 c 34.41055,0 62.30973,-27.89918 62.30973,-62.30973 V 53.493358 c 0,-25.827386 -20.93607,-46.732302 -46.7323,-46.732302 z m 15.57744,436.168154 c 0,17.16633 -13.98854,31.15487 -31.15487,31.15487 H 69.070792 c -17.18191,0 -31.154868,-13.98854 -31.154868,-31.15487 V 131.38053 c 0,-8.59875 6.97869,-15.57744 15.577434,-15.57744 h 15.577434 v 311.54868 c 0,8.61433 6.963113,15.57744 15.577434,15.57744 8.614321,0 15.577434,-6.96311 15.577434,-15.57744 V 53.493358 c 0,-8.598744 6.97869,-15.577434 15.57743,-15.577434 h 342.70355 c 8.58317,0 15.57744,6.97869 15.57744,15.577434 z"
     style="fill:#0084a7;fill-opacity:1;stroke-width:15.5774" /><path
     inkscape:connector-curvature="0"
     id="path123"
     d="m 310.48986,209.34559 h 124.61948 c 4.31495,0 7.78871,-3.48935 7.78871,-7.78872 0,-4.29937 -3.47376,-7.78872 -7.78871,-7.78872 H 310.48986 c -4.28379,0 -7.78871,3.48935 -7.78871,7.78872 0,4.29937 3.50492,7.78872 7.78871,7.78872 z"
     style="fill:#0084a7;fill-opacity:1;stroke-width:15.5774" /><path
     inkscape:connector-curvature="0"
     id="path125"
     d="m 310.48986,162.61328 h 124.61948 c 4.31495,0 7.78871,-3.48934 7.78871,-7.78871 0,-4.29938 -3.47376,-7.78872 -7.78871,-7.78872 H 310.48986 c -4.28379,0 -7.78871,3.48934 -7.78871,7.78872 0,4.29937 3.50492,7.78871 7.78871,7.78871 z"
     style="fill:#0084a7;fill-opacity:1;stroke-width:15.5774" /><path
     inkscape:connector-curvature="0"
     id="path127"
     d="m 310.48986,115.88098 h 124.61948 c 4.31495,0 7.78871,-3.48934 7.78871,-7.78872 0,-4.29937 -3.47376,-7.78871 -7.78871,-7.78871 H 310.48986 c -4.28379,0 -7.78871,3.48934 -7.78871,7.78871 0,4.29938 3.50492,7.78872 7.78871,7.78872 z"
     style="fill:#0084a7;fill-opacity:1;stroke-width:15.5774" /><path
     inkscape:connector-curvature="0"
     id="path129"
     d="M 263.78872,427.41408 H 139.16925 c -4.29938,0 -7.78872,3.50493 -7.78872,7.78872 0,4.31495 3.48934,7.78872 7.78872,7.78872 h 124.61947 c 4.28379,0 7.78871,-3.47377 7.78871,-7.78872 0,-4.28379 -3.48934,-7.78872 -7.78871,-7.78872 z"
     style="fill:#0084a7;fill-opacity:1;stroke-width:15.5774" /><path
     inkscape:connector-curvature="0"
     id="path131"
     d="M 263.78872,380.68178 H 139.16925 c -4.29938,0 -7.78872,3.50492 -7.78872,7.78872 0,4.31495 3.48934,7.78872 7.78872,7.78872 h 124.61947 c 4.28379,0 7.78871,-3.47377 7.78871,-7.78872 0,-4.2838 -3.48934,-7.78872 -7.78871,-7.78872 z"
     style="fill:#0084a7;fill-opacity:1;stroke-width:15.5774" /><path
     inkscape:connector-curvature="0"
     id="path133"
     d="M 263.78872,333.94948 H 139.16925 c -4.29938,0 -7.78872,3.50492 -7.78872,7.78872 0,4.31495 3.48934,7.78871 7.78872,7.78871 h 124.61947 c 4.28379,0 7.78871,-3.47376 7.78871,-7.78871 0,-4.2838 -3.48934,-7.78872 -7.78871,-7.78872 z"
     style="fill:#0084a7;fill-opacity:1;stroke-width:15.5774" /><path
     inkscape:connector-curvature="0"
     id="path135"
     d="M 435.14049,427.41408 H 310.52102 c -4.31495,0 -7.78872,3.50493 -7.78872,7.78872 0,4.31495 3.47377,7.78872 7.78872,7.78872 h 124.61947 c 4.2838,0 7.78872,-3.47377 7.78872,-7.78872 0,-4.28379 -3.50492,-7.78872 -7.78872,-7.78872 z"
     style="fill:#0084a7;fill-opacity:1;stroke-width:15.5774" /><path
     inkscape:connector-curvature="0"
     id="path137"
     d="M 435.14049,380.68178 H 310.52102 c -4.31495,0 -7.78872,3.50492 -7.78872,7.78872 0,4.31495 3.47377,7.78872 7.78872,7.78872 h 124.61947 c 4.2838,0 7.78872,-3.47377 7.78872,-7.78872 0,-4.2838 -3.50492,-7.78872 -7.78872,-7.78872 z"
     style="fill:#0084a7;fill-opacity:1;stroke-width:15.5774" /><path
     inkscape:connector-curvature="0"
     id="path139"
     d="M 435.14049,333.94948 H 310.52102 c -4.31495,0 -7.78872,3.50492 -7.78872,7.78872 0,4.31495 3.47377,7.78871 7.78872,7.78871 h 124.61947 c 4.2838,0 7.78872,-3.47376 7.78872,-7.78871 0,-4.2838 -3.50492,-7.78872 -7.78872,-7.78872 z"
     style="fill:#0084a7;fill-opacity:1;stroke-width:15.5774" /><path
     inkscape:connector-curvature="0"
     id="path141"
     d="M 435.14049,240.48488 H 139.16925 c -4.29938,0 -7.78872,3.48934 -7.78872,7.78871 0,4.29937 3.48934,7.78872 7.78872,7.78872 h 295.97124 c 4.2838,0 7.78872,-3.48935 7.78872,-7.78872 0,-4.29937 -3.50492,-7.78871 -7.78872,-7.78871 z"
     style="fill:#0084a7;fill-opacity:1;stroke-width:15.5774" /><path
     inkscape:connector-curvature="0"
     id="path143"
     d="M 435.14049,287.21718 H 139.16925 c -4.29938,0 -7.78872,3.50492 -7.78872,7.78871 0,4.31495 3.48934,7.78872 7.78872,7.78872 h 295.97124 c 4.2838,0 7.78872,-3.47377 7.78872,-7.78872 0,-4.28379 -3.50492,-7.78871 -7.78872,-7.78871 z"
     style="fill:#0084a7;fill-opacity:1;stroke-width:15.5774" /><path
     inkscape:connector-curvature="0"
     id="path145"
     d="M 146.95796,209.2677 H 256 c 8.61432,0 15.57743,-6.96311 15.57743,-15.57744 V 84.710536 c 0,-8.614321 -6.96311,-15.577434 -15.57743,-15.577434 H 146.95796 c -8.61432,0 -15.57743,6.963113 -15.57743,15.577434 V 193.69026 c 0,8.59875 6.96311,15.57744 15.57743,15.57744 z M 162.5354,100.22566 h 77.88717 v 77.88717 H 162.5354 Z"
     style="fill:#0084a7;fill-opacity:1;stroke-width:15.5774" /><path
     inkscape:connector-curvature="0"
     id="path187"
     d="m 56.317254,470.08564 c -3.361587,-1.80283 -8.51708,-6.24927 -11.45665,-9.88093 L 39.51593,453.60166 39.047145,290.22713 38.57836,126.85258 43.769942,121.661 c 4.503038,-4.50303 6.498405,-5.19158 15.044906,-5.19158 h 9.853321 v 158.77131 158.77129 l 4.657936,4.65794 c 5.684606,5.6846 15.307946,6.20724 21.844102,1.18638 l 4.417007,-3.39312 0.883396,-194.6029 0.88341,-194.602931 4.95723,-4.263637 4.95722,-4.263637 h 174.7318 c 124.29438,0 175.97453,0.566188 179.0371,1.961614 2.36791,1.078893 5.18803,3.899022 6.26694,6.266947 1.40052,3.07375 1.96172,61.155494 1.96172,203.044194 0,164.8249 -0.41519,199.70909 -2.43259,204.42425 -2.94183,6.87548 -10.79051,14.49989 -17.55895,17.05719 -3.40342,1.28586 -65.88758,1.87926 -197.90945,1.87926 -184.544454,0 -193.201529,-0.14331 -199.047682,-3.27789 z M 269.7303,441.20771 c 1.16603,-1.16602 2.12015,-3.7898 2.12015,-5.83044 0,-2.04065 -0.95417,-4.66436 -2.12015,-5.83045 -3.04268,-3.04269 -134.06119,-3.04269 -137.10388,0 -2.72529,2.72528 -2.72529,8.93559 0,11.66089 3.04269,3.04267 134.0612,3.04267 137.10388,0 z m 171.37984,0 c 1.16602,-1.16602 2.12017,-3.7898 2.12017,-5.83044 0,-7.8604 -0.80172,-7.95062 -70.6721,-7.95062 -69.87027,0 -70.67212,0.0893 -70.67212,7.95062 0,2.04064 0.95417,4.66436 2.12018,5.83044 3.04268,3.04267 134.06118,3.04267 137.10387,0 z M 268.43301,395.56205 c 2.18485,-1.16934 3.41744,-3.69586 3.41744,-7.00504 0,-3.30921 -1.23269,-5.83577 -3.41744,-7.00507 -2.17666,-1.16499 -26.82795,-1.829 -67.89571,-1.829 -56.26084,0 -64.83207,0.35371 -67.25464,2.77642 -3.57559,3.57558 -3.5246,7.6028 0.14767,11.6606 2.73077,3.01747 7.17602,3.23101 67.25464,3.23101 40.96599,0 65.57181,-0.66422 67.74807,-1.829 z m 171.37984,0 c 2.18487,-1.16934 3.41746,-3.69586 3.41746,-7.00504 0,-3.30921 -1.23269,-5.83577 -3.41746,-7.00507 -2.17665,-1.16499 -26.82794,-1.829 -67.8957,-1.829 -56.26083,0 -64.83208,0.35371 -67.25464,2.77642 -1.527,1.527 -2.77642,4.25293 -2.77642,6.0576 0,1.8047 1.24931,4.53059 2.77642,6.05761 2.42256,2.42256 10.99381,2.7764 67.25464,2.7764 41.06776,0 65.71905,-0.66402 67.8957,-1.829 z M 269.7303,347.56719 c 1.16603,-1.16602 2.12015,-3.78978 2.12015,-5.83047 0,-2.04064 -0.95417,-4.66434 -2.12015,-5.83042 -3.04268,-3.04269 -134.06119,-3.04269 -137.10388,0 -2.72529,2.72528 -2.72529,8.93559 0,11.66089 3.04269,3.04267 134.0612,3.04267 137.10388,0 z m 171.37984,0 c 1.16602,-1.16602 2.12017,-3.78978 2.12017,-5.83047 0,-7.86037 -0.80172,-7.9506 -70.6721,-7.9506 -69.87027,0 -70.67212,0.0914 -70.67212,7.9506 0,2.04065 0.95417,4.66436 2.12018,5.83047 3.04268,3.04267 134.06118,3.04267 137.10387,0 z m -1.29729,-45.64566 c 4.61019,-2.46732 4.61019,-11.54278 0,-14.01012 -2.27861,-1.2194 -53.30839,-1.829 -153.131,-1.829 -136.83064,0 -149.99158,0.25173 -152.94457,2.92405 -3.96537,3.58861 -4.14354,8.27866 -0.45465,11.96759 2.48045,2.48044 18.7838,2.77639 152.94457,2.77639 100.13596,0 151.30677,-0.60939 153.58561,-1.829 z m 1.29729,-47.99487 c 1.16602,-1.16602 2.12017,-3.7898 2.12017,-5.83044 0,-2.04065 -0.95417,-4.66436 -2.12017,-5.83045 -3.07231,-3.07233 -305.41142,-3.07233 -308.48372,0 -2.72529,2.72528 -2.72529,8.93559 0,11.66089 3.0723,3.07231 305.41139,3.07231 308.48372,0 z m -174.69567,-48.39078 5.43598,-4.57406 V 139.20048 77.439147 l -4.33669,-4.336697 -4.3367,-4.336695 h -61.1709 -61.17091 l -5.16449,5.164499 -5.1645,5.164498 v 60.343098 60.34311 l 5.1645,5.16449 5.16449,5.1645 h 60.07164 60.07164 z m 174.69567,2.45391 c 3.35951,-3.35953 2.57592,-11.64601 -1.29731,-13.71889 -2.17538,-1.16424 -26.6867,-1.82897 -67.44107,-1.82897 -57.09526,0 -64.37327,0.31643 -67.25464,2.92403 -3.96537,3.58861 -4.14353,8.27867 -0.45465,11.96759 2.42456,2.42457 11.11174,2.7764 68.55193,2.7764 48.80302,0 66.3226,-0.54708 67.8957,-2.12016 z m -1.80657,-46.56709 c 4.27198,-2.9922 5.17993,-9.42412 1.80657,-12.79747 -3.04269,-3.04269 -134.06121,-3.04269 -137.10389,0 -3.37335,3.37335 -2.46539,9.80527 1.80656,12.79747 5.89654,4.13011 127.59418,4.13011 133.49072,0 z m 1.80657,-47.07345 c 2.52886,-2.52887 2.71822,-8.33157 0.39213,-12.01425 -2.58693,-4.095494 -129.25103,-4.943174 -135.41218,-0.90623 -4.5586,2.9869 -5.23231,6.28413 -2.37491,11.62318 1.75879,3.28613 4.39312,3.41746 68.55192,3.41746 49.53992,0 67.26897,-0.54604 68.84314,-2.12017 z"
     style="fill:none;stroke-width:1.7668" /><path
     inkscape:connector-curvature="0"
     id="path189"
     d="M 57.183955,470.85932 C 50.599592,467.92033 42.994664,459.94359 40.511731,453.37197 39.234192,449.99069 38.632528,396.9149 38.632528,287.59835 V 126.79842 l 5.1645,-5.1645 c 4.473399,-4.4734 6.483044,-5.1645 15.017822,-5.1645 h 9.853321 V 275.3246 434.17976 l 5.435966,4.57407 c 8.116182,6.8293 20.013034,5.30441 24.419587,-3.13002 1.412312,-2.70325 2.096776,-58.56131 2.402616,-196.07314 l 0.42768,-192.293 4.95723,-4.263783 4.95722,-4.263772 h 174.7318 c 124.29438,0 175.97453,0.566188 179.0371,1.961614 2.36791,1.078893 5.18803,3.899022 6.26694,6.266947 1.40052,3.07375 1.96172,61.155494 1.96172,203.044194 0,164.8249 -0.41519,199.70909 -2.43259,204.42425 -2.94183,6.87548 -10.79051,14.49989 -17.55895,17.05719 -3.40757,1.28752 -65.71751,1.85745 -197.88189,1.81009 C 98.153708,473.23833 61.504407,472.78783 57.184059,470.85936 Z M 268.43301,441.49891 c 3.82003,-2.04438 4.54311,-8.70627 1.29729,-11.95209 -2.77743,-2.77743 -130.64871,-3.05162 -135.80659,-0.29119 -4.13072,2.21071 -4.43122,7.50568 -0.64106,11.29586 2.42257,2.42256 10.9938,2.7764 67.25464,2.7764 41.06777,0 65.71904,-0.66402 67.8957,-1.829 z m 171.37984,0 c 1.93908,-1.03787 3.41746,-3.68585 3.41746,-6.12164 0,-2.43581 -1.4784,-5.08383 -3.41746,-6.12164 -4.66467,-2.49646 -129.84462,-2.49646 -134.5093,0 -4.13072,2.21071 -4.43121,7.50568 -0.64116,11.29584 2.42258,2.42258 10.9938,2.77642 67.25466,2.77642 41.06774,0 65.71903,-0.66402 67.8957,-1.829 z m -170.73879,-46.8843 c 3.83807,-3.83807 3.49399,-10.84966 -0.64117,-13.06267 -2.17538,-1.16416 -26.68672,-1.829 -67.44109,-1.829 -57.09526,0 -64.37327,0.31653 -67.25465,2.92405 -4.34648,3.93351 -4.07268,8.65366 0.69569,11.99361 3.37847,2.36635 12.8583,2.75037 67.89569,2.75037 55.79787,0 64.32363,-0.35454 66.74538,-2.7764 z m 171.37983,0 c 3.83807,-3.83807 3.494,-10.84966 -0.64096,-13.06267 -2.17538,-1.16416 -26.6867,-1.829 -67.44107,-1.829 -57.09526,0 -64.37326,0.31653 -67.25463,2.92405 -4.3465,3.93351 -4.07271,8.65366 0.69579,11.99361 3.37845,2.36635 12.8583,2.75037 67.89568,2.75037 55.79787,0 64.32361,-0.35454 66.74538,-2.7764 z M 269.7303,347.56719 c 1.16603,-1.16602 2.12015,-3.78978 2.12015,-5.83047 0,-7.85539 -0.83848,-7.9506 -70.01586,-7.9506 -57.4402,0 -66.12736,0.35185 -68.55193,2.77642 -3.67497,3.67497 -3.52577,8.97915 0.31549,11.21648 4.70449,2.74011 133.38041,2.53989 136.13213,-0.21185 z m 171.37984,0 c 3.24584,-3.24582 2.52273,-9.90768 -1.29729,-11.95211 -4.66467,-2.49644 -129.84462,-2.49644 -134.5093,0 -4.2771,2.28905 -4.47668,9.74614 -0.32546,12.16394 4.70451,2.74011 133.38041,2.53989 136.13213,-0.21185 z m -1.29729,-45.64566 c 3.63615,-1.94594 4.45656,-7.92555 1.68839,-12.30547 -1.46366,-2.31578 -20.66663,-2.70964 -152.18316,-3.12132 -133.06162,-0.41644 -150.98947,-0.15578 -154.65999,2.24923 -5.22691,3.42482 -5.32351,8.68505 -0.22504,12.25614 3.47865,2.43652 20.93131,2.75037 152.94458,2.75037 99.343,0 150.15701,-0.6098 152.43526,-1.82899 z m 0,-47.70367 c 1.93908,-1.03787 3.41746,-3.68585 3.41746,-6.12164 0,-2.43581 -1.4784,-5.08383 -3.41746,-6.12166 -2.27883,-1.21961 -53.44965,-1.829 -153.58561,-1.829 -134.16078,0 -150.46413,0.29597 -152.94458,2.77642 -3.67497,3.67496 -3.52577,8.97914 0.31549,11.2165 4.31608,2.51388 301.52182,2.5909 306.21468,0.0789 z m -173.39836,-48.68198 5.43596,-4.57406 v -61.4401 -61.440099 l -4.65792,-4.657933 -4.65794,-4.657933 h -60.84966 -60.84968 l -5.16449,5.164499 -5.1645,5.164498 v 60.343098 60.3431 l 5.1645,5.1645 5.16449,5.1645 h 60.07164 60.07164 z m 173.39836,2.7451 c 3.63573,-1.94577 4.45652,-7.9246 1.68922,-12.30544 -2.58694,-4.0955 -129.25104,-4.94318 -135.41219,-0.9062 -4.84248,3.17292 -5.43428,8.25745 -1.42751,12.26425 2.42256,2.42256 10.9938,2.7764 67.25463,2.7764 41.06777,0 65.71906,-0.66401 67.8957,-1.82896 z m 0.49848,-47.41613 c 3.96547,-3.29418 3.68715,-10.29074 -0.49848,-12.53082 -2.17665,-1.1649 -26.82794,-1.82896 -67.8957,-1.82896 -56.26083,0 -64.83208,0.35382 -67.25464,2.77641 -3.33716,3.33716 -3.60277,8.475 -0.56785,10.98534 3.83128,3.16912 11.34046,3.50428 73.05352,3.26068 48.19795,-0.19025 60.82786,-0.72269 63.16319,-2.66264 z m -0.49848,-46.22439 c 1.88549,-1.00911 3.41746,-3.6841 3.41746,-5.96748 0,-8.856263 -1.03704,-8.988183 -70.66672,-8.988183 -52.34626,0 -65.38921,0.466803 -67.75172,2.424843 -3.68622,3.05508 -3.74976,7.98299 -0.14954,11.58338 2.42249,2.42257 10.99374,2.7764 67.25457,2.7764 41.06777,0 65.71905,-0.66401 67.8957,-1.82897 z"
     style="fill:none;stroke-width:1.7668" /><path
     inkscape:connector-curvature="0"
     id="path191"
     d="M 57.183955,470.85932 C 50.599592,467.92033 42.994664,459.94359 40.511731,453.37197 39.23401,449.99021 38.632528,396.74162 38.632528,287.0079 V 125.61754 l 5.435965,-4.57405 c 4.385769,-3.69039 7.287128,-4.57407 15.017822,-4.57407 h 9.581856 V 275.3246 434.17976 l 5.435966,4.57407 c 7.363011,6.19556 14.618018,5.99351 21.201978,-0.59049 l 5.164495,-5.16446 V 241.02901 49.059106 l 5.16451,-5.16449 5.16449,-5.164501 h 174.96623 c 124.46619,0 176.20886,0.566188 179.27153,1.961614 2.36791,1.078893 5.18803,3.899022 6.26694,6.266947 1.40052,3.07375 1.96172,61.155494 1.96172,203.044194 0,164.8249 -0.41519,199.70909 -2.43259,204.42425 -2.94183,6.87548 -10.79051,14.49989 -17.55895,17.05719 -3.40757,1.28752 -65.71751,1.85745 -197.88189,1.81009 C 98.153708,473.23833 61.504407,472.78783 57.184059,470.85936 Z M 267.31844,441.60479 c 5.57616,-2.12004 6.25129,-9.60008 1.11451,-12.34918 -2.17666,-1.16499 -26.82795,-1.829 -67.89571,-1.829 -56.26084,0 -64.83207,0.35371 -67.25464,2.77642 -4.28637,4.28637 -3.13575,9.68251 2.52401,11.837 4.69661,1.78787 126.72686,1.3839 131.51175,-0.43534 z m 171.37983,0 c 3.22918,-1.22771 4.53202,-3.01797 4.53202,-6.22752 0,-3.20956 -1.3029,-4.99982 -4.53202,-6.22755 -4.84134,-1.84063 -124.29461,-2.42582 -130.94785,-0.64158 -6.71917,1.802 -7.4041,11.91158 -0.9226,13.61767 6.23527,1.64124 127.44272,1.16228 131.87043,-0.52112 z m -170.3108,-47.4493 c 5.02563,-4.06951 3.72892,-11.70914 -2.25979,-13.31386 -2.19706,-0.58862 -31.84364,-1.08128 -65.8813,-1.09458 -53.84035,-0.0208 -62.41027,0.3425 -65.91392,2.79669 -2.50591,1.75527 -3.82242,4.24138 -3.48503,6.58128 1.10826,7.68595 5.67315,8.2123 71.46029,8.2399 57.56751,0.0229 62.37475,-0.20936 66.07975,-3.20947 z m 171.37985,0 c 5.02561,-4.06951 3.72893,-11.70914 -2.25981,-13.31386 -2.19706,-0.58862 -31.84362,-1.08128 -65.88129,-1.09458 -53.84034,-0.0208 -62.41028,0.3425 -65.91391,2.79669 -2.50591,1.75527 -3.82244,4.24138 -3.48503,6.58128 1.10828,7.68595 5.67316,8.2123 71.4603,8.2399 57.56748,0.0229 62.37474,-0.20936 66.07974,-3.20947 z M 267.31844,347.96427 c 3.22918,-1.22771 4.53201,-3.01797 4.53201,-6.22755 0,-3.20953 -1.30289,-4.99977 -4.53201,-6.22752 -4.84134,-1.84063 -124.29461,-2.4258 -130.94786,-0.64138 -6.71918,1.802 -7.4041,11.91159 -0.9226,13.61767 6.23528,1.64124 127.44275,1.16228 131.87046,-0.52112 z m 171.37983,0 c 3.22918,-1.22771 4.53202,-3.01797 4.53202,-6.22755 0,-3.20953 -1.3029,-4.99977 -4.53202,-6.22752 -4.84134,-1.84063 -124.29461,-2.4258 -130.94785,-0.64138 -6.71917,1.802 -7.4041,11.91159 -0.9226,13.61767 6.23527,1.64124 127.44272,1.16228 131.87043,-0.52112 z m -2.73313,-45.32263 c 6.80894,-1.36167 9.35969,-8.1541 4.7819,-12.73343 -2.68792,-2.68877 -15.45973,-2.98796 -148.19879,-3.4715 -79.89155,-0.29099 -148.36373,0.12669 -152.16039,0.92841 -11.65798,2.46151 -13.33297,11.85393 -2.64718,14.84401 5.39569,1.50976 290.76862,1.92371 298.22446,0.43243 z m 1.96483,-48.17568 c 3.418,-0.95064 4.417,-2.39143 4.417,-6.36974 0,-3.97833 -0.99904,-5.419 -4.417,-6.36976 -5.46084,-1.5189 -292.53536,-1.99661 -300.02262,-0.4991 -8.5703,1.71414 -9.76273,11.99585 -1.57538,13.58362 6.64283,1.28836 296.92016,0.95625 301.598,-0.34498 z m -171.5155,-48.93008 5.43598,-4.57406 V 139.81918 78.676523 l -4.74754,-4.955385 -4.74757,-4.955383 h -60.76005 -60.76004 l -5.16449,5.164499 -5.1645,5.164498 v 60.343098 60.34311 l 5.1645,5.16449 5.16449,5.1645 h 60.07164 60.07164 z m 171.09304,3.45542 c 5.28476,-1.41609 7.16423,-8.79754 3.23967,-12.7236 -2.63767,-2.63874 -9.65248,-2.94237 -67.97624,-2.94237 -68.65445,0 -70.88485,0.2538 -70.88485,8.06676 0,1.76939 1.76711,4.45476 3.92674,5.96748 3.37424,2.36341 12.63399,2.74698 65.81339,2.72625 34.03765,-0.0135 63.68423,-0.50585 65.88129,-1.09452 z m 2.96094,-48.25916 c 4.43751,-3.6828 3.47078,-10.51139 -1.77018,-12.504 -4.90249,-1.86393 -124.33399,-2.4146 -131.0894,-0.60441 -4.68476,1.25532 -7.05533,8.39787 -4.00647,12.07153 2.96037,3.56702 14.05637,4.09029 78.11985,3.68404 42.85437,-0.27178 56.63209,-0.89259 58.7462,-2.64714 z m -0.6556,-46.09168 c 4.15886,-2.22576 4.47251,-9.23037 0.55871,-12.47851 -4.25175,-3.528642 -131.31368,-3.577676 -135.56281,-0.0523 -4.0742,3.38022 -3.64406,8.35373 1.00402,11.6094 3.37669,2.36512 12.79744,2.75038 67.25466,2.75038 40.27479,0 64.57195,-0.66578 66.74536,-1.82895 z"
     style="fill:none;stroke-width:1.7668" /><path
     inkscape:connector-curvature="0"
     id="path193"
     d="M 57.183955,470.85932 C 50.599592,467.92033 42.994664,459.94359 40.511731,453.37197 39.23401,449.99021 38.632528,396.74162 38.632528,287.0079 V 125.61754 l 5.435965,-4.57405 c 4.385769,-3.69039 7.287128,-4.57407 15.017822,-4.57407 h 9.581856 v 158.70426 158.70423 l 4.163653,3.91155 c 2.29001,2.15135 7.023493,4.37562 10.518852,4.94285 5.444365,0.88355 7.126603,0.26004 11.737567,-4.35107 l 5.382367,-5.38236 V 240.61205 48.225226 l 4.95539,-4.747556 4.95538,-4.747555 h 175.17535 c 124.61945,0 176.41784,0.566084 179.48066,1.961614 2.36789,1.078893 5.18803,3.899022 6.26692,6.266947 1.40052,3.07375 1.96172,61.155494 1.96172,203.044194 0,164.8249 -0.41498,199.70909 -2.43259,204.42425 -2.94181,6.87548 -10.79051,14.49989 -17.55895,17.05719 -3.40757,1.28752 -65.71751,1.85745 -197.88186,1.81009 C 98.153708,473.23833 61.504407,472.78783 57.184059,470.85936 Z M 263.48354,442.18974 c 5.12149,-0.84658 6.89971,-2.09062 7.73291,-5.41032 0.60295,-2.4022 0.16201,-5.23167 -0.99654,-6.39021 -1.52098,-1.5214 -20.08394,-2.07915 -69.19327,-2.07915 -57.72382,0 -67.35266,0.37095 -68.81532,2.65022 -0.93537,1.45763 -1.4958,3.82282 -1.24546,5.25601 1.11202,6.36677 7.73404,7.05934 67.56232,7.06609 32.06746,0.004 61.29739,-0.48809 64.95536,-1.09271 z m 171.37982,0 c 5.12148,-0.84658 6.89972,-2.09062 7.73293,-5.41032 0.60253,-2.40081 0.162,-5.23235 -0.99488,-6.39021 -2.22105,-2.22348 -121.16893,-4.14352 -132.03581,-2.13131 -3.06433,0.56744 -6.06384,2.31464 -6.66556,3.88273 -1.55961,4.06426 0.4046,9.05797 3.9278,9.98534 4.70202,1.23768 120.58369,1.29542 128.03554,0.0623 z M 269.01673,394.01202 c 1.65225,-1.37269 2.76712,-4.1354 2.47729,-6.13959 -1.117,-7.72481 -5.52255,-8.19394 -72.46297,-7.71629 -56.85402,0.40563 -63.4015,0.74979 -66.12674,3.47688 -4.2593,4.26201 -0.87462,11.44904 5.89871,12.52515 2.72485,0.43285 32.46168,0.68852 66.08186,0.56826 49.81692,-0.17862 61.6835,-0.68063 64.13185,-2.71441 z m 171.3799,0 c 4.09917,-3.40521 2.88602,-9.31184 -2.46674,-12.01027 -5.50907,-2.77721 -122.62396,-3.2631 -129.79025,-0.53856 -9.36536,3.56071 -7.66278,12.44049 2.76344,14.41259 3.30047,0.62435 33.11073,1.02188 66.2451,0.88355 49.01973,-0.20562 60.80398,-0.71656 63.24845,-2.74723 z M 265.66665,348.13585 c 4.43294,-0.94794 5.30042,-1.98498 5.30042,-6.33682 0,-4.04477 -0.98346,-5.47696 -4.41703,-6.43205 -2.42936,-0.67585 -32.35483,-1.30788 -66.50106,-1.40466 -57.45887,-0.16201 -62.3786,0.0623 -66.03783,3.02544 -4.49203,3.63744 -3.67801,10.1514 1.43682,11.49773 4.71144,1.24017 124.28542,0.91907 130.21868,-0.34956 z m 171.37983,0 c 4.43295,-0.94794 5.3004,-1.98498 5.3004,-6.33682 0,-4.04477 -0.98345,-5.47696 -4.41699,-6.43205 -2.42935,-0.67585 -32.35485,-1.30788 -66.50108,-1.40466 -57.45886,-0.16201 -62.37859,0.0623 -66.03781,3.02544 -4.49204,3.63744 -3.67802,10.1514 1.43686,11.49773 4.71142,1.24017 124.28541,0.91907 130.21867,-0.34956 z m 3.26302,-47.6936 c 1.60634,-1.33363 2.92079,-3.82027 2.92079,-5.52577 0,-8.10837 3.04674,-7.95062 -153.54097,-7.95062 -81.23436,0 -149.83227,0.59818 -152.4398,1.32928 -5.39206,1.51184 -8.03495,7.35315 -4.98795,11.02456 1.12598,1.35669 4.9682,2.78813 8.53828,3.18089 3.57007,0.39276 71.76304,0.63577 151.53994,0.54023 120.15414,-0.14331 145.55024,-0.58987 147.96971,-2.59861 z m 1.19198,-47.92904 c 2.11351,-3.34462 2.11343,-5.48968 -3.5e-4,-8.834 -1.46781,-2.32223 -20.4803,-2.6502 -153.62118,-2.6502 -138.41544,0 -152.20402,0.25775 -154.84153,2.89489 -4.69439,4.69366 -1.78208,10.02108 5.947,10.87869 3.59626,0.39899 72.75677,0.64346 153.69005,0.54314 128.74514,-0.15993 147.36082,-0.51385 148.82601,-2.83256 z m -175.08701,-46.97733 5.43598,-4.57406 V 139.81918 78.676523 l -4.74754,-4.955385 -4.74757,-4.955383 h -60.76005 -60.76004 l -5.16449,5.164499 -5.1645,5.164498 v 60.071288 60.07129 l 5.43632,5.4363 5.4363,5.43632 h 59.79983 59.79982 z m 169.55067,3.46524 c 6.80929,-1.36187 9.35979,-8.15433 4.78127,-12.73342 -2.6384,-2.63872 -9.65368,-2.94237 -67.97828,-2.94237 -69.47286,0 -71.73431,0.27686 -70.5256,8.63518 1.08709,7.51682 5.9891,8.09587 68.76972,8.12339 32.67478,0.0145 61.90362,-0.47293 64.95289,-1.08278 z m 5.28571,-49.236 c 1.49066,-1.44335 2.01531,-4.04267 1.35046,-6.69143 -1.54632,-6.16066 -5.6702,-6.53072 -72.69336,-6.52314 -59.82827,0.007 -66.4503,0.69932 -67.56232,7.0661 -1.61694,9.25808 10.02198,10.5482 84.34694,9.34934 40.18062,-0.64813 52.67908,-1.38139 54.55824,-3.20087 z m 0.25153,-46.8293 c 2.68918,-4.25779 1.991,-8.56895 -1.70854,-10.54882 -2.1998,-1.1773 -26.83591,-1.84854 -68.46074,-1.8653 -59.92394,-0.0241 -65.20174,0.2165 -67.28673,3.06789 -3.13096,4.28185 -2.03939,7.96444 3.15578,10.64561 3.39944,1.75444 18.99596,2.16674 68.51384,1.81118 54.72298,-0.39296 64.35765,-0.84845 65.78633,-3.11056 z"
     style="fill:none;stroke-width:1.7668" /><path
     inkscape:connector-curvature="0"
     id="path195"
     d="M 57.183955,470.85932 C 50.599592,467.92033 42.994664,459.94359 40.511731,453.37197 39.23401,449.99021 38.632528,396.74162 38.632528,287.0079 V 125.61754 l 5.435965,-4.57405 c 4.384336,-3.68917 7.28784,-4.57407 15.008428,-4.57407 h 9.57246 l 0.451102,159.38367 0.451081,159.38365 6.003389,4.04556 c 8.037702,5.41646 13.526727,5.1055 19.751154,-1.11887 l 5.164503,-5.16455 V 240.61205 48.225226 l 4.95539,-4.747556 4.95538,-4.747555 174.81678,0.02388 c 96.14921,0.0135 176.63748,0.511875 178.86283,1.107971 9.54469,2.556797 9.20496,-5.193309 9.20496,209.969794 0,164.97002 -0.41498,199.87985 -2.43261,204.59512 -2.94181,6.87549 -10.79049,14.49989 -17.55895,17.05719 -3.40757,1.28752 -65.7175,1.85745 -197.88187,1.8101 C 98.153604,473.2381 61.504303,472.78781 57.183955,470.85936 Z M 269.32097,439.54959 c 1.79784,-1.7993 2.46371,-4.24643 1.75921,-6.46576 -0.98927,-3.1169 -3.20226,-3.7241 -17.40791,-4.77633 -8.951,-0.66297 -39.10519,-0.93381 -67.00933,-0.6015 -45.68,0.54397 -51.04589,0.91533 -53.85752,3.72908 -4.02773,4.03067 -1.37827,8.75742 5.84029,10.41939 2.8113,0.6474 32.71244,1.04473 66.44697,0.88355 54.21863,-0.25942 61.67114,-0.62933 64.22819,-3.18831 z m 171.37979,0 c 1.75776,-1.759 2.46001,-4.25821 1.78995,-6.36945 -1.51599,-4.77633 -15.1659,-5.76003 -79.47478,-5.72744 -54.14496,0.027 -60.24641,0.82996 -60.24641,7.92457 0,7.51545 5.15808,8.05667 71.93628,7.54793 55.69448,-0.42433 63.44186,-0.82062 65.99496,-3.37561 z M 268.92881,394.08278 c 1.60697,-1.33364 2.92164,-3.82027 2.92164,-5.52577 0,-7.44292 -3.31026,-7.92231 -59.01485,-8.5463 -62.79857,-0.70348 -78.02531,0.27187 -80.64419,5.16524 -3.0351,5.67117 0.75779,10.13232 9.36537,11.01543 4.12549,0.42329 33.81453,0.66755 65.97562,0.54293 46.70897,-0.1807 59.0626,-0.7147 61.39641,-2.65151 z m 159.00311,2.14173 c 10.45861,-0.98761 12.34559,-1.70874 14.00604,-5.35309 1.54196,-3.38413 1.3245,-4.80649 -1.10682,-7.2384 -2.74797,-2.74871 -9.03558,-3.02663 -68.4767,-3.02663 -62.74981,0 -65.55448,0.14123 -67.95965,3.42959 -1.37975,1.88632 -2.49655,3.87392 -2.48167,4.41701 0.0935,3.41804 4.22453,6.17558 10.86528,7.25304 9.89543,1.60551 99.37514,2.00845 115.1535,0.51862 z M 270.12215,346.15373 c 2.11267,-3.34428 2.11278,-5.48936 4.3e-4,-8.834 -1.42377,-2.25441 -10.84289,-2.73504 -63.06898,-3.21826 -33.76737,-0.31258 -63.99972,-0.0789 -67.183,0.51759 -10.08259,1.89152 -12.02191,12.29637 -2.5893,13.89218 2.59004,0.43825 33.1621,0.68333 67.93791,0.54459 54.09322,-0.21559 63.47062,-0.63493 64.90294,-2.90228 z m 160.44082,2.40277 c 8.64122,-0.90328 11.04203,-1.83211 11.92498,-4.61403 0.67336,-2.12148 -0.0249,-4.61485 -1.78891,-6.37805 -2.57699,-2.57746 -10.0483,-2.89489 -68.13973,-2.89489 -58.09093,0 -65.5629,0.31757 -68.14095,2.89489 -4.06812,4.06723 -1.8049,9.95348 4.17758,10.86561 8.03444,1.22481 110.44156,1.33115 121.96695,0.1267 z m 9.74636,-48.11425 c 4.11296,-3.41438 3.62822,-8.54094 -1.05428,-11.15032 -3.09519,-1.72474 -36.44178,-2.22754 -150.61991,-2.27065 -80.65453,-0.0312 -148.74332,0.53399 -151.30844,1.2545 -5.51222,1.54819 -7.50356,5.59653 -5.02805,10.22208 2.50064,4.67246 5.16655,4.74573 165.34143,4.5447 115.65939,-0.14539 140.25182,-0.59339 142.66932,-2.60024 z m -17.58077,-45.92807 c 13.85239,-0.88542 17.88345,-1.75298 19.40489,-4.17633 1.4863,-2.36752 1.21421,-3.76492 -1.20445,-6.1838 -2.93981,-2.94011 -12.05778,-3.12504 -154.06003,-3.12504 -142.00195,0 -151.12027,0.18485 -154.06078,3.12504 -5.0507,5.04997 -1.06415,9.04993 10.2453,10.27967 12.95783,1.40903 257.7878,1.47944 279.67501,0.0789 z m -156.78698,-48.91115 5.90887,-4.50692 V 139.88632 78.676523 l -4.74754,-4.955385 -4.74757,-4.955383 h -60.76005 -60.76004 l -5.16449,5.164499 -5.1645,5.164498 v 59.681378 59.68138 l 5.647,5.82622 5.64699,5.82622 h 59.11622 59.11624 z m 174.36981,1.19868 c 1.60531,-1.33366 2.9189,-3.82025 2.9189,-5.52578 0,-7.53896 -2.53896,-7.82751 -68.66028,-7.80316 -34.63159,0.0125 -64.68193,0.61136 -66.77857,1.33023 -8.02213,2.75053 -6.27144,12.67369 2.4863,14.09264 2.67267,0.43305 32.36683,0.68468 65.98707,0.55912 48.9579,-0.18277 61.70882,-0.71095 64.04658,-2.65305 z m 0.14331,-47.17183 c 3.56865,-3.56866 3.52139,-6.77331 -0.14539,-9.81657 -2.3594,-1.95844 -15.43088,-2.42485 -67.95832,-2.42485 -57.89796,0 -65.35487,0.31778 -67.93255,2.8949 -3.44024,3.43954 -2.04853,9.74757 2.40944,10.92101 1.65495,0.43565 31.77306,0.88428 66.92925,0.99695 55.93458,0.17925 64.26726,-0.14186 66.6968,-2.57145 z m 1.04805,-46.69406 c 2.9653,-4.69394 1.86555,-8.86931 -2.80369,-10.64455 -2.63886,-1.00329 -31.00123,-1.72307 -67.8957,-1.72307 -55.24759,0 -63.71928,0.35562 -66.14008,2.7764 -1.527,1.52703 -2.7764,3.36272 -2.7764,4.07932 0,2.55689 4.47625,6.99575 7.95062,7.88423 1.94344,0.49702 31.98652,0.76288 66.76231,0.5908 54.04773,-0.26742 63.47183,-0.69766 64.90294,-2.96308 z"
     style="fill:none;stroke-width:1.7668" /><path
     inkscape:connector-curvature="0"
     id="path197"
     d="M 57.183955,470.85932 C 50.599592,467.92033 42.994664,459.94359 40.511731,453.37197 39.23401,449.99021 38.632528,396.74162 38.632528,287.0079 V 125.61754 l 5.435965,-4.57405 c 4.385769,-3.69039 7.287128,-4.57407 15.017822,-4.57407 h 9.581856 v 157.7357 c 0,172.91228 -0.642766,162.69872 10.530448,167.32681 4.317406,1.78829 6.424142,1.78829 10.741548,0 11.240713,-4.65605 10.530443,8.93142 10.530443,-201.44891 V 48.225226 l 4.98162,-4.772687 4.98161,-4.772687 177.81967,0.466804 c 167.98977,0.441049 177.99406,0.641271 180.97435,3.621556 2.98493,2.984968 3.18208,13.8713 3.66379,202.298878 0.27998,109.52928 0.0415,201.74509 -0.52901,204.92403 -1.28918,7.1789 -10.41345,17.81311 -18.00562,20.98534 -8.41717,3.51691 -389.283298,3.40456 -397.17321,-0.11631 z m 212.365835,-31.5399 c 2.42088,-2.42157 2.69081,-3.81363 1.19905,-6.18381 -3.02562,-4.80742 -20.71973,-5.989 -80.55028,-5.37891 -49.1003,0.50056 -54.56387,0.85074 -57.39113,3.6784 -4.41634,4.4168 -1.11719,8.93474 7.59659,10.40296 3.78773,0.63826 33.69211,1.0358 66.45416,0.88335 54.3954,-0.25298 59.83864,-0.54833 62.69155,-3.40203 z m 161.13015,2.50861 c 11.3027,-1.36375 15.26242,-5.3787 10.24977,-10.39293 -2.87516,-2.87605 -8.32257,-3.12504 -68.36655,-3.12504 -58.003,0 -65.56312,0.32027 -68.13223,2.88579 -4.2101,4.20426 -0.65384,9.93724 6.73323,10.85411 9.60764,1.1924 109.32731,1.00734 119.51578,-0.22204 z M 247.00347,396.22719 c 20.5477,-1.10475 21.74172,-1.37684 23.55917,-5.36568 1.53074,-3.3597 1.32034,-4.79596 -1.04971,-7.16614 -2.59969,-2.59969 -9.15256,-3.05241 -53.27699,-3.68068 -56.15949,-0.79964 -79.12121,0.41956 -83.11473,4.41305 -5.87484,5.87483 -1.45582,10.09754 11.89622,11.36777 16.09087,1.53074 76.76923,1.78766 101.98614,0.4318 z m 193.82524,-3.29438 c 2.993,-4.09319 2.98617,-4.6676 -0.10593,-8.89683 -2.40412,-3.2884 -5.21007,-3.42959 -68.16336,-3.42959 -62.95284,0 -65.75933,0.14123 -68.16478,3.42959 -2.94145,4.02118 -2.99294,4.55282 -0.77991,8.05363 2.59855,4.11064 18.67984,5.03496 79.35104,4.56091 51.73689,-0.40439 55.62244,-0.65384 57.86277,-3.71771 z M 269.57546,345.65233 c 4.78793,-4.7879 0.99592,-8.98058 -9.39352,-10.38631 -11.20697,-1.51641 -113.38041,-1.8238 -120.68356,-0.36306 -6.55814,1.31162 -10.28852,6.67649 -7.21634,10.37823 3.12152,3.7612 8.95241,4.05811 73.71849,3.75381 55.0617,-0.25859 60.75388,-0.56162 63.57493,-3.38267 z m 161.10448,2.53519 c 11.26587,-1.35918 15.26228,-5.37947 10.29023,-10.35151 -2.76371,-2.76371 -8.58184,-3.15518 -56.07874,-3.77315 -62.76755,-0.81667 -78.66586,0.21663 -81.38063,5.28919 -2.50113,4.67343 0.48539,8.15298 7.78259,9.06702 9.46437,1.18554 109.24546,0.99197 119.38655,-0.23159 z m 9.78267,-47.87313 c 3.88198,-3.22176 3.44374,-8.44538 -0.90369,-10.77206 -2.61012,-1.39699 -46.82392,-1.97252 -152.95196,-1.99101 -139.60618,-0.0249 -149.50157,0.17447 -152.69062,3.05997 -3.86875,3.50117 -4.00882,4.15241 -1.68606,7.8388 2.65474,4.21324 29.48332,4.91216 173.51364,4.5203 105.25888,-0.28642 132.51087,-0.82353 134.71869,-2.656 z m -1.20756,-47.50263 c 4.61539,-2.54224 5.10338,-5.99688 1.29376,-9.1586 -3.31459,-2.75085 -199.24764,-4.72522 -264.59169,-2.66621 -39.11065,1.23248 -42.13311,1.56127 -43.85096,4.77107 -3.36261,6.28311 0.80016,8.3321 18.43981,9.07652 8.8989,0.37552 76.60448,0.5666 150.45682,0.42495 103.08533,-0.19731 135.20041,-0.76662 138.25228,-2.44763 z m -173.31347,-47.20873 5.90887,-4.50692 V 139.88632 78.676523 l -4.74754,-4.955385 -4.74757,-4.955383 h -60.48823 -60.48823 l -5.4363,5.436314 -5.43632,5.436315 v 58.990496 58.9905 l 5.48343,6.24529 5.48344,6.24528 h 59.27979 59.27979 z m 174.36717,1.19868 c 3.93397,-3.26513 3.69171,-8.52286 -0.49598,-10.76402 -2.17663,-1.1649 -26.82794,-1.82896 -67.89568,-1.82896 -56.26083,0 -64.83208,0.35382 -67.25464,2.7764 -3.35349,3.35348 -3.43372,4.52237 -0.56785,8.27124 3.21053,4.19977 8.46438,4.49979 73.93437,4.22203 47.42954,-0.20126 59.94537,-0.7391 62.27978,-2.67669 z M 437.42967,161.308 c 5.1759,-1.3876 6.98147,-7.31209 3.33864,-10.95491 -2.41721,-2.41722 -9.96115,-2.92997 -52.24526,-3.55098 -27.18107,-0.39919 -57.01106,-0.1566 -66.2889,0.53888 -14.57761,1.09293 -17.13701,1.7659 -18.84361,4.9547 -1.64684,3.07734 -1.3166,4.22304 1.98976,6.9003 3.66468,2.96748 8.66022,3.20845 66.04859,3.18616 34.14623,-0.0135 63.84663,-0.49661 66.00084,-1.07416 z m 3.29548,-48.64344 c 4.17861,-4.17862 1.75942,-9.68365 -4.8352,-11.00257 -6.93831,-1.38766 -122.96976,-1.39867 -128.13953,-0.0122 -8.5425,2.29107 -6.03634,12.30497 3.41374,13.64031 3.15688,0.44603 32.95414,0.68323 66.2162,0.52693 53.19956,-0.24996 60.8216,-0.62933 63.34479,-3.15249 z"
     style="fill:none;stroke-width:1.7668" /><path
     inkscape:connector-curvature="0"
     id="path199"
     d="M 164.07551,138.55446 V 100.5682 h 37.98625 37.98626 v 37.98626 37.98624 h -37.98626 -37.98625 z"
     style="fill:none;stroke-width:1.7668" /><path
     inkscape:connector-curvature="0"
     id="path201"
     d="M 164.07551,138.55446 V 100.5682 h 37.98624 37.98627 v 37.98626 37.98624 h -37.98627 -37.98624 z"
     style="fill:none;stroke-width:1.7668" /><path
     inkscape:connector-curvature="0"
     id="path203"
     d="M 57.183955,470.85932 C 50.599592,467.92033 42.994664,459.94359 40.511731,453.37197 39.23401,449.99021 38.632528,396.74162 38.632528,287.0079 V 125.61754 l 5.435965,-4.57405 c 4.385769,-3.69039 7.287128,-4.57407 15.017822,-4.57407 h 9.581856 L 68.8772,271.50634 c 0.115065,85.27029 0.711265,157.4221 1.325099,160.33732 1.593967,7.57007 12.278256,12.77813 19.812185,9.65749 2.909914,-1.20528 6.254194,-3.87136 7.431734,-5.92451 1.632183,-2.84585 2.258379,-49.32711 2.634982,-195.5923 l 0.49402,-191.859329 4.92931,-4.72258 4.9293,-4.722579 177.81968,0.466804 c 167.98977,0.441049 177.99406,0.641271 180.97435,3.621556 2.98493,2.984968 3.18208,13.8713 3.66379,202.298878 0.27998,109.52928 0.0415,201.74509 -0.52901,204.92403 -1.28918,7.1789 -10.41345,17.81311 -18.00562,20.98534 -8.41717,3.51691 -389.2833,3.40456 -397.173214,-0.11631 z M 269.08002,439.89406 c 3.88578,-3.22492 3.44739,-6.68039 -1.16042,-9.14641 -4.95696,-2.65289 -79.65865,-4.32574 -111.40399,-2.49473 -18.55599,1.07027 -22.82864,1.83232 -24.15335,4.30751 -5.01419,9.36908 4.54845,10.61773 77.08818,10.06564 43.56993,-0.33169 57.50664,-0.97016 59.62958,-2.73201 z m 170.17497,0.17447 c 4.7065,-2.56272 5.09251,-5.98066 1.05387,-9.33282 -2.3598,-1.9586 -15.462,-2.42482 -68.16135,-2.42482 -61.91147,0 -65.36462,0.17031 -67.68231,3.33596 -3.85311,5.26305 -0.37531,9.57212 8.47134,10.49593 4.12549,0.43076 33.34038,0.62746 64.92197,0.43679 41.39591,-0.24966 58.53052,-0.95043 61.3964,-2.51104 z M 267.05657,394.64182 c 4.38979,-1.68444 5.62686,-7.77488 2.26268,-11.13967 -2.57194,-2.57238 -9.82565,-2.89489 -65.11158,-2.89489 -34.21946,0 -64.31591,0.58945 -66.88103,1.30975 -5.96865,1.67634 -7.7327,6.23781 -4.00521,10.35665 2.12933,2.35287 6.25055,3.40225 15.50213,3.94736 17.84033,1.05117 114.75164,-0.24322 118.23301,-1.57934 z m 171.17841,0.081 c 3.95582,-1.52368 5.36946,-5.69868 3.26256,-9.63549 -1.51994,-2.84012 -5.37305,-3.36805 -33.12122,-4.53814 -31.5835,-1.33177 -96.36172,-0.12255 -101.62431,1.8965 -4.31929,1.65744 -5.27849,6.26086 -2.04833,9.83015 2.1803,2.40922 6.25851,3.38992 16.38551,3.9402 19.43737,1.05615 113.64442,-0.14539 117.14575,-1.49336 z m -168.49199,-49.2381 c 2.25387,-2.25387 2.48656,-3.63759 1.00714,-5.98972 -2.8952,-4.6034 -23.74219,-5.93882 -83.40905,-5.34303 -48.42809,0.48352 -51.98311,0.73608 -54.26072,3.85346 -4.02195,5.5049 -0.37677,9.59537 9.36229,10.50606 4.60994,0.43098 34.47891,0.58592 66.37547,0.34395 51.28925,-0.38881 58.3326,-0.77866 60.92475,-3.37077 z m 169.512,0.96372 c 2.18641,-1.20237 3.9753,-3.25323 3.9753,-4.55767 0,-6.26433 -4.65115,-6.91449 -55.44746,-7.75066 -72.66341,-1.19614 -89.17522,0.81958 -84.11844,10.26818 2.45534,4.58781 7.7795,4.91396 74.1942,4.54508 41.77812,-0.2322 58.50406,-0.9145 61.3964,-2.50493 z m 0.52153,-46.27445 c 3.77969,-2.02278 4.30619,-4.70669 1.72453,-8.79126 -1.46366,-2.31578 -20.66665,-2.70964 -152.18318,-3.12132 -133.06159,-0.41644 -150.98944,-0.15578 -154.65996,2.24921 -4.57763,2.9994 -4.89237,4.02949 -2.42571,7.93932 1.33733,2.11978 7.96223,2.87501 33.10049,3.77342 49.44734,1.7671 270.39532,0.11838 274.44373,-2.04937 z m -0.31882,-47.53302 c 2.07492,-1.11057 3.77261,-3.15579 3.77261,-4.54502 0,-6.81417 -2.97047,-6.94885 -154.59523,-7.00902 -80.65453,-0.0311 -148.74332,0.5313 -151.30844,1.2516 -5.26321,1.47819 -7.89743,6.26661 -5.0307,9.1447 3.31843,3.33158 43.22355,4.16682 175.09327,3.66491 91.98975,-0.35018 129.36346,-1.05968 132.06847,-2.50734 z m -173.51612,-47.03794 5.90887,-4.50692 V 139.88632 78.676523 l -4.74754,-4.955385 -4.74757,-4.955383 H 202.25702 142.1587 l -5.82622,5.646994 -5.82622,5.646996 v 58.779815 58.77982 l 5.48343,6.24529 5.48344,6.24528 h 59.27979 59.27979 z m 174.92248,0.56318 c 3.56708,-3.56709 1.58848,-9.87765 -3.49363,-11.14256 -2.12164,-0.52807 -32.7081,-0.72871 -67.96991,-0.44583 -54.68221,0.43867 -64.35856,0.90412 -65.78633,3.16453 -2.07159,3.27962 -2.07408,3.78442 -0.0353,7.00867 2.68609,4.24703 17.40126,5.12498 77.47356,4.62226 48.6842,-0.4074 57.48331,-0.87919 59.81118,-3.20709 z m -3.88732,-45.50018 c 5.7953,-2.20336 7.53121,-6.57326 4.01,-10.09449 -2.26977,-2.26978 -10.52698,-2.88013 -49.27036,-3.64191 -69.66125,-1.36971 -92.01638,0.89674 -89.32792,9.05625 1.8805,5.70764 9.07267,6.36829 69.61301,6.39439 35.44469,0.0156 62.28907,-0.69299 64.97527,-1.71424 z m 3.9684,-48.22144 c 3.5592,-3.55922 1.85039,-7.9238 -3.9684,-10.13611 -2.6859,-1.02119 -29.9195,-1.74029 -65.90723,-1.74029 -52.64888,0 -61.88576,0.38931 -65.25668,2.75039 -4.33318,3.03508 -4.62313,4.01445 -2.28305,7.7117 2.81489,4.44745 15.75949,5.25243 75.77739,4.71236 50.61312,-0.45549 59.25791,-0.91803 61.63799,-3.2981 z"
     style="fill:none;stroke:none;stroke-width:1.7668" /></g></svg>
