<?xml version="1.0" encoding="UTF-8" standalone="no"?>
<svg
   xmlns:dc="http://purl.org/dc/elements/1.1/"
   xmlns:cc="http://creativecommons.org/ns#"
   xmlns:rdf="http://www.w3.org/1999/02/22-rdf-syntax-ns#"
   xmlns:svg="http://www.w3.org/2000/svg"
   xmlns="http://www.w3.org/2000/svg"
   xmlns:sodipodi="http://sodipodi.sourceforge.net/DTD/sodipodi-0.dtd"
   xmlns:inkscape="http://www.inkscape.org/namespaces/inkscape"
   height="512"
   viewBox="0 0 383.99999 383.99999"
   width="512"
   version="1.1"
   id="svg5741"
   sodipodi:docname="app_actions.svg"
   inkscape:version="1.0.1 (3bc2e813f5, 2020-09-07)">
  <metadata
     id="metadata5747">
    <rdf:RDF>
      <cc:Work
         rdf:about="">
        <dc:format>image/svg+xml</dc:format>
        <dc:type
           rdf:resource="http://purl.org/dc/dcmitype/StillImage" />
        <dc:title />
      </cc:Work>
    </rdf:RDF>
  </metadata>
  <defs
     id="defs5745" />
  <sodipodi:namedview
     pagecolor="#ffffff"
     bordercolor="#666666"
     borderopacity="1"
     objecttolerance="10"
     gridtolerance="10"
     guidetolerance="10"
     inkscape:pageopacity="0"
     inkscape:pageshadow="2"
     inkscape:window-width="1366"
     inkscape:window-height="739"
     id="namedview5743"
     showgrid="false"
     showborder="true"
     fit-margin-top="0"
     fit-margin-left="0"
     fit-margin-right="0"
     fit-margin-bottom="0"
     inkscape:zoom="0.55874063"
     inkscape:cx="193.97823"
     inkscape:cy="207.75395"
     inkscape:window-x="0"
     inkscape:window-y="0"
     inkscape:window-maximized="1"
     inkscape:current-layer="svg5741"
     showguides="false"
     inkscape:document-rotation="0"
     units="px" />
  <path
     d="m 304.71967,167.49567 h -83.31461 c -2.70795,0 -4.90075,-2.19476 -4.90075,-4.90073 V 79.280287 c 0,-13.532215 -10.97191,-24.504101 -24.50412,-24.504101 -13.53259,0 -24.50451,10.971886 -24.50451,24.504101 v 83.314653 c 0,2.70793 -2.19476,4.90073 -4.90073,4.90073 H 79.2803 c -13.532211,0 -24.504114,10.97192 -24.504114,24.50412 0,13.53261 10.971903,24.50453 24.504114,24.50453 h 83.31465 c 2.70792,0 4.90073,2.19477 4.90073,4.90074 v 83.31461 c 0,13.53222 10.97192,24.50413 24.50451,24.50413 13.53221,0 24.50412,-10.97191 24.50412,-24.50413 v -83.31461 c 0,-2.70795 2.19477,-4.90074 4.90075,-4.90074 h 83.31461 c 13.53222,0 24.50413,-10.97192 24.50413,-24.50412 0,-13.53261 -10.97191,-24.50453 -24.50413,-24.50453 z m 0,0"
     id="path5739"
     style="fill:none;fill-opacity:1;stroke:#8888c6;stroke-width:29.6057;stroke-miterlimit:4;stroke-dasharray:none;stroke-opacity:1"
     inkscape:connector-curvature="0" />
</svg>
