<?xml version="1.0" encoding="UTF-8" standalone="no"?>
<svg
   xmlns:dc="http://purl.org/dc/elements/1.1/"
   xmlns:cc="http://creativecommons.org/ns#"
   xmlns:rdf="http://www.w3.org/1999/02/22-rdf-syntax-ns#"
   xmlns:svg="http://www.w3.org/2000/svg"
   xmlns="http://www.w3.org/2000/svg"
   xmlns:sodipodi="http://sodipodi.sourceforge.net/DTD/sodipodi-0.dtd"
   xmlns:inkscape="http://www.inkscape.org/namespaces/inkscape"
   height="512pt"
   viewBox="0 0 512 512"
   width="512pt"
   version="1.1"
   id="svg5741"
   sodipodi:docname="custom_actions.svg"
   inkscape:version="1.0.1 (3bc2e813f5, 2020-09-07)">
  <metadata
     id="metadata5747">
    <rdf:RDF>
      <cc:Work
         rdf:about="">
        <dc:format>image/svg+xml</dc:format>
        <dc:type
           rdf:resource="http://purl.org/dc/dcmitype/StillImage" />
        <dc:title></dc:title>
      </cc:Work>
    </rdf:RDF>
  </metadata>
  <defs
     id="defs5745" />
  <sodipodi:namedview
     pagecolor="#ffffff"
     bordercolor="#666666"
     borderopacity="1"
     objecttolerance="10"
     gridtolerance="10"
     guidetolerance="10"
     inkscape:pageopacity="0"
     inkscape:pageshadow="2"
     inkscape:window-width="1366"
     inkscape:window-height="739"
     id="namedview5743"
     showgrid="false"
     showborder="true"
     fit-margin-top="0"
     fit-margin-left="0"
     fit-margin-right="0"
     fit-margin-bottom="0"
     inkscape:zoom="0.39508929"
     inkscape:cx="816.64546"
     inkscape:cy="155.9097"
     inkscape:window-x="0"
     inkscape:window-y="0"
     inkscape:window-maximized="1"
     inkscape:current-layer="svg5741"
     showguides="false"
     inkscape:document-rotation="0" />
  <path
     d="M 447.78404,214.3079 H 306.03037 c -4.60625,0 -8.33826,-3.73315 -8.33826,-8.33883 V 64.215383 c 0,-23.023942 -18.66789,-41.691835 -41.69238,-41.691835 -23.02396,0 -41.69183,18.667893 -41.69183,41.691835 V 205.96907 c 0,4.60626 -3.73315,8.33883 -8.33883,8.33883 H 64.215946 c -23.024505,0 -41.692398,18.66731 -41.692398,41.69183 0,23.02449 18.667893,41.69238 41.692398,41.69238 H 205.96907 c 4.60626,0 8.33883,3.73314 8.33883,8.33826 v 141.75367 c 0,23.02452 18.66787,41.6924 41.69183,41.6924 23.02449,0 41.69238,-18.66788 41.69238,-41.6924 V 306.03037 c 0,-4.60625 3.73314,-8.33826 8.33826,-8.33826 h 141.75367 c 23.02452,0 41.6924,-18.66789 41.6924,-41.69238 0,-23.02452 -18.66788,-41.69183 -41.6924,-41.69183 z m 0,0"
     id="path5739"
     style="fill:#000000;fill-opacity:0;stroke:#8888c6;stroke-width:36.7679;stroke-opacity:1"
     inkscape:connector-curvature="0" />
</svg>
