<?xml version="1.0" encoding="UTF-8" standalone="no"?>
<svg
   xmlns:dc="http://purl.org/dc/elements/1.1/"
   xmlns:cc="http://creativecommons.org/ns#"
   xmlns:rdf="http://www.w3.org/1999/02/22-rdf-syntax-ns#"
   xmlns:svg="http://www.w3.org/2000/svg"
   xmlns="http://www.w3.org/2000/svg"
   xmlns:sodipodi="http://sodipodi.sourceforge.net/DTD/sodipodi-0.dtd"
   xmlns:inkscape="http://www.inkscape.org/namespaces/inkscape"
   version="1.1"
   id="Layer_1"
   x="0px"
   y="0px"
   viewBox="0 0 12 12"
   xml:space="preserve"
   sodipodi:docname="settings.svg"
   inkscape:version="1.0.1 (3bc2e813f5, 2020-09-07)"
   width="12"
   height="12"><metadata
   id="metadata1620"><rdf:RDF><cc:Work
       rdf:about=""><dc:format>image/svg+xml</dc:format><dc:type
         rdf:resource="http://purl.org/dc/dcmitype/StillImage" /><dc:title /></cc:Work></rdf:RDF></metadata><defs
   id="defs1618">
	

		
	
			
			
		</defs><sodipodi:namedview
   pagecolor="#ffffff"
   bordercolor="#666666"
   borderopacity="1"
   objecttolerance="10"
   gridtolerance="10"
   guidetolerance="10"
   inkscape:pageopacity="0"
   inkscape:pageshadow="2"
   inkscape:window-width="1366"
   inkscape:window-height="739"
   id="namedview1616"
   showgrid="false"
   showborder="true"
   inkscape:zoom="10.429825"
   inkscape:cx="-7.2085772"
   inkscape:cy="4.279965"
   inkscape:window-x="0"
   inkscape:window-y="0"
   inkscape:window-maximized="1"
   inkscape:current-layer="Layer_1"
   fit-margin-top="0"
   fit-margin-left="0"
   fit-margin-right="0"
   fit-margin-bottom="0"
   inkscape:document-rotation="0" />
<path
   d="M 11.497959,7.249807 10.422865,6.4303782 c 0.01414,-0.1263657 0.02533,-0.2740856 0.02533,-0.4303783 0,-0.1562928 -0.01169,-0.3040126 -0.02534,-0.4303783 l 1.076079,-0.8198965 c 0.199823,-0.1539101 0.254879,-0.4270604 0.1272,-0.6545855 l -1.11799,-1.885399 C 10.38581,1.9926588 10.111445,1.8933698 9.861433,1.9831507 L 8.5928439,2.479551 C 8.3501418,2.3085397 8.0952634,2.1641376 7.8315899,2.048705 L 7.6385978,0.73715125 C 7.6069351,0.48773759 7.3847019,0.29962523 7.1220107,0.29962523 H 4.8801915 c -0.2626911,0 -0.4849244,0.18811236 -0.5161074,0.43276086 L 4.1706122,2.048705 C 3.9152313,2.1612875 3.6642595,2.3033292 3.4103407,2.4800409 L 2.1383477,1.9822155 C 1.8951658,1.8895844 1.6183337,1.9874483 1.4965029,2.2049977 L 0.37704402,4.0932469 C 0.2449788,4.3108186 0.29907505,4.5929871 0.50376358,4.7506826 L 1.578858,5.5696439 C 1.561793,5.7302118 1.553523,5.8693811 1.553523,6.0000221 c 0,0.1306411 0.0083,0.2698104 0.024375,0.4303783 L 0.50182177,7.2507867 C 0.30247891,7.4046746 0.24788007,7.6778027 0.37507937,7.9053501 L 1.4930762,9.790749 c 0.1213511,0.216614 0.3952361,0.315414 0.6467106,0.22659 L 3.4083759,9.5209387 C 3.6510781,9.6914823 3.906459,9.8358844 4.1701097,9.9517845 l 0.192992,1.3110865 c 0.031686,0.249392 0.2539189,0.437504 0.5165873,0.437504 h 2.2418191 c 0.2626912,0 0.4849244,-0.188112 0.5161075,-0.432761 L 7.8310873,9.9517845 C 8.0864682,9.8392021 8.3374401,9.6971604 8.591359,9.5204488 l 1.271993,0.4978252 c 0.242222,0.09168 0.520014,-0.0052 0.641845,-0.2227821 l 1.123845,-1.894907 C 11.75334,7.6782926 11.698742,7.4051422 11.497959,7.249807 Z M 11.203102,7.6678271 10.042226,9.576495 8.6469402,9.0302166 C 8.5679889,8.9993322 8.4783234,9.0112227 8.4100863,9.0606112 8.1079194,9.2810331 7.8160098,9.4468116 7.5167671,9.5660518 7.4368335,9.5978714 7.3798131,9.6686586 7.3676368,9.7522715 L 7.1215309,11.22535 4.8470439,11.200167 4.6340627,9.7527391 C 4.6213839,9.6691261 4.5648662,9.5983613 4.4849325,9.5665194 4.1735136,9.4420687 3.8737911,9.2724825 3.5935552,9.0625039 3.550173,9.0297267 3.4975389,9.0130932 3.4449047,9.0130932 c -0.030703,0 -0.061406,0.00523 -0.091127,0.017101 L 1.9185131,9.5579465 0.80051624,7.6725477 c -0.0102344,-0.018526 -0.008292,-0.039903 0.003404,-0.048921 L 1.9867273,6.7225001 c 0.067255,-0.051303 0.1023443,-0.1339588 0.09163,-0.2166143 -0.025837,-0.1990454 -0.037534,-0.360081 -0.037534,-0.5059081 0,-0.1458273 0.012176,-0.3063952 0.037534,-0.5059083 0.010714,-0.083123 -0.024375,-0.1653109 -0.09163,-0.2166143 L 0.79811755,4.3326403 1.9589939,2.4239722 3.3542797,2.9702507 c 0.079431,0.031352 0.1686168,0.019484 0.2373336,-0.030395 C 3.8932776,2.7189666 4.1856897,2.5536558 4.4849325,2.4344155 4.5648662,2.402106 4.6213839,2.3313412 4.633583,2.2481959 L 4.8801915,0.77464902 7.1551583,0.80030071 7.3676368,2.2481959 c 0.012679,0.083613 0.069197,0.1543777 0.1491303,0.1862196 0.3109392,0.1239832 0.6106617,0.2935694 0.8913774,0.5040156 0.068716,0.051303 0.1588849,0.063661 0.2392982,0.03182 l 1.4352643,-0.5277526 1.117997,1.8853989 c 0.01024,0.018526 0.0082,0.039435 -0.0034,0.048453 L 10.0145,5.2774772 c -0.06725,0.051303 -0.102344,0.1334912 -0.091627,0.2166142 0.018525,0.1444021 0.037536,0.3177959 0.037536,0.5059083 0,0.1885799 -0.019011,0.3615061 -0.037536,0.5059082 C 9.91216,6.5885639 9.94725,6.6712188 10.0145,6.7225221 l 1.181338,0.9006595 c 0.01263,0.00998 0.01508,0.031352 0.0073,0.044645 z"
   id="path1575"
   inkscape:connector-curvature="0"
   style="fill:#94556d;fill-opacity:1;stroke:#94556d;stroke-width:0.247456;stroke-miterlimit:4;stroke-dasharray:none;stroke-opacity:1" /><path
   d="M 6,3.5524361 C 4.615409,3.5524361 3.4889458,4.6504175 3.4889458,6 3.4889458,7.3495825 4.615409,8.4475639 6,8.4475639 7.384591,8.4475639 8.5110542,7.3495825 8.5110542,6 8.5110542,4.6504175 7.384591,3.5524361 6,3.5524361 Z M 6,7.9580374 C 4.8921342,7.9580374 3.9911707,7.0798542 3.9911707,6 3.9911707,4.9201458 4.8921342,4.0419626 6,4.0419626 7.1078658,4.0419626 8.0088293,4.9201458 8.0088293,6 8.0088293,7.0798542 7.1078658,7.9580374 6,7.9580374 Z"
   id="path1577"
   inkscape:connector-curvature="0"
   style="fill:#94556d;fill-opacity:1;stroke:#94556d;stroke-width:0.254999;stroke-miterlimit:4;stroke-dasharray:none;stroke-opacity:1" />
<g
   id="g1585"
   transform="translate(-6.6814869,-500.02344)">
</g>
<g
   id="g1587"
   transform="translate(-6.6814869,-500.02344)">
</g>
<g
   id="g1589"
   transform="translate(-6.6814869,-500.02344)">
</g>
<g
   id="g1591"
   transform="translate(-6.6814869,-500.02344)">
</g>
<g
   id="g1593"
   transform="translate(-6.6814869,-500.02344)">
</g>
<g
   id="g1595"
   transform="translate(-6.6814869,-500.02344)">
</g>
<g
   id="g1597"
   transform="translate(-6.6814869,-500.02344)">
</g>
<g
   id="g1599"
   transform="translate(-6.6814869,-500.02344)">
</g>
<g
   id="g1601"
   transform="translate(-6.6814869,-500.02344)">
</g>
<g
   id="g1603"
   transform="translate(-6.6814869,-500.02344)">
</g>
<g
   id="g1605"
   transform="translate(-6.6814869,-500.02344)">
</g>
<g
   id="g1607"
   transform="translate(-6.6814869,-500.02344)">
</g>
<g
   id="g1609"
   transform="translate(-6.6814869,-500.02344)">
</g>
<g
   id="g1611"
   transform="translate(-6.6814869,-500.02344)">
</g>
<g
   id="g1613"
   transform="translate(-6.6814869,-500.02344)">
</g>
</svg>
