<?xml version="1.0" encoding="UTF-8" standalone="no"?>
<svg
   xmlns:dc="http://purl.org/dc/elements/1.1/"
   xmlns:cc="http://creativecommons.org/ns#"
   xmlns:rdf="http://www.w3.org/1999/02/22-rdf-syntax-ns#"
   xmlns:svg="http://www.w3.org/2000/svg"
   xmlns="http://www.w3.org/2000/svg"
   xmlns:sodipodi="http://sodipodi.sourceforge.net/DTD/sodipodi-0.dtd"
   xmlns:inkscape="http://www.inkscape.org/namespaces/inkscape"
   version="1.1"
   id="Layer_1"
   x="0px"
   y="0px"
   viewBox="0 0 512 512"
   xml:space="preserve"
   sodipodi:docname="settings.svg"
   inkscape:version="1.0.1 (3bc2e813f5, 2020-09-07)"
   width="512"
   height="512"><metadata
   id="metadata1620"><rdf:RDF><cc:Work
       rdf:about=""><dc:format>image/svg+xml</dc:format><dc:type
         rdf:resource="http://purl.org/dc/dcmitype/StillImage" /><dc:title /></cc:Work></rdf:RDF></metadata><defs
   id="defs1618">
	

		
	
			
			
		</defs><sodipodi:namedview
   pagecolor="#ffffff"
   bordercolor="#666666"
   borderopacity="1"
   objecttolerance="10"
   gridtolerance="10"
   guidetolerance="10"
   inkscape:pageopacity="0"
   inkscape:pageshadow="2"
   inkscape:window-width="1366"
   inkscape:window-height="739"
   id="namedview1616"
   showgrid="false"
   showborder="true"
   inkscape:zoom="0.4609375"
   inkscape:cx="73.268238"
   inkscape:cy="212.39275"
   inkscape:window-x="0"
   inkscape:window-y="0"
   inkscape:window-maximized="1"
   inkscape:current-layer="Layer_1"
   fit-margin-top="0"
   fit-margin-left="0"
   fit-margin-right="0"
   fit-margin-bottom="0"
   inkscape:document-rotation="0" />
<g
   id="g10064"
   transform="matrix(0.98333433,0,0,0.98333433,4.2753318,4.266411)"><path
     d="m 493.18212,309.91671 -46.37959,-35.35019 c 0.61,-5.45142 1.09273,-11.82406 1.09273,-18.56653 0,-6.74248 -0.5043,-13.11511 -1.09316,-18.56653 l 46.42208,-35.37036 c 8.62037,-6.63969 10.99548,-18.4234 5.48741,-28.23884 L 450.48147,92.488087 c -5.2775,-9.364916 -17.11361,-13.648246 -27.89914,-9.775095 L 367.85536,104.12772 C 357.38518,96.750283 346.38972,90.520772 335.01484,85.541006 L 326.68915,28.960537 C 325.32322,18.200824 315.73608,10.085651 304.40357,10.085651 h -96.71215 c -11.3325,0 -20.91965,8.115173 -22.26489,18.669317 l -8.34638,56.786038 c -11.01714,4.856813 -21.84407,10.984496 -32.79814,18.607844 L 89.408194,82.672647 C 78.917319,78.676539 66.974774,82.89839 61.718989,92.283478 L 13.425498,173.74261 c -5.6972973,9.38605 -3.363583,21.5588 5.466686,28.36179 l 46.379607,35.33002 c -0.736185,6.9269 -1.092953,12.93067 -1.092953,18.56653 0,5.63586 0.358062,11.63963 1.051538,18.56653 l -46.421962,35.39149 c -8.599657,6.63873 -10.9550524,18.42149 -5.467671,28.23789 l 48.230418,81.33616 c 5.23509,9.34474 17.050498,13.60697 27.899116,9.7751 L 144.19725,407.8934 c 10.47018,7.35726 21.48732,13.58677 32.86122,18.5867 l 8.32568,56.56031 c 1.36694,10.75878 10.95407,18.87394 22.28559,18.87394 h 96.71215 c 11.3325,0 20.91965,-8.11516 22.26489,-18.66932 l 8.34638,-56.76493 c 11.01714,-4.85681 21.84407,-10.98449 32.79814,-18.60783 l 54.87382,21.47619 c 10.44946,3.95508 22.43342,-0.22433 27.68921,-9.61083 l 48.48271,-81.74634 c 5.36222,-9.5897 3.00686,-21.37342 -5.65492,-28.07458 z m -12.72014,18.0334 -50.08023,82.33999 -60.19267,-23.56647 c -3.40597,-1.33235 -7.27414,-0.81939 -10.21789,1.31123 -13.03549,9.509 -25.62848,16.66069 -38.53782,21.80472 -3.44833,1.3727 -5.9082,4.42646 -6.43348,8.03352 l -10.61702,63.54866 -98.12144,-1.0864 -9.18801,-62.44208 c -0.54697,-3.60707 -2.98514,-6.65987 -6.43349,-8.03353 -13.43462,-5.3688 -26.36465,-12.68476 -38.45404,-21.74324 -1.87151,-1.41401 -4.14215,-2.13158 -6.41279,-2.13158 -1.32453,0 -2.64905,0.22562 -3.93122,0.73774 L 79.924522,409.48992 31.694103,328.15375 c -0.441512,-0.79921 -0.357717,-1.72141 0.146849,-2.11045 l 51.026333,-38.87463 c 2.901383,-2.21321 4.415136,-5.77899 3.952921,-9.34475 -1.114609,-8.58682 -1.619218,-15.5339 -1.619218,-21.82489 0,-6.29099 0.525273,-13.2179 1.619218,-21.8249 0.462202,-3.58593 -1.051538,-7.13151 -3.952921,-9.34474 l -51.276661,-40.75934 50.080241,-82.34001 60.192675,23.56648 c 3.42665,1.35252 7.27413,0.84054 10.23858,-1.31124 13.0138,-9.52917 25.62847,-16.66068 38.53781,-21.80471 3.44835,-1.39383 5.88652,-4.446629 6.41279,-8.03352 l 10.6387,-63.568858 98.14214,1.106614 9.16633,62.462244 c 0.54697,3.607067 2.98516,6.65986 6.43348,8.03352 13.41393,5.34864 26.34397,12.66459 38.45405,21.74325 2.96441,2.21321 6.8543,2.74634 10.32333,1.37271 l 61.91735,-22.76726 48.23043,81.33617 c 0.44175,0.79921 0.35374,1.70122 -0.14668,2.09026 l -51.0262,38.87464 c -2.90117,2.21321 -4.41513,5.75881 -3.95279,9.34474 0.79917,6.22951 1.6193,13.70973 1.6193,21.8249 0,8.13534 -0.82013,15.59539 -1.6193,21.8249 -0.46216,3.56578 1.05162,7.13151 3.95279,9.34474 l 50.96296,38.85448 c 0.54485,0.43054 0.65055,1.35253 0.31492,1.92599 z"
     id="path1575"
     inkscape:connector-curvature="0"
     style="fill:#8888c6;fill-opacity:1;stroke:#8888c6;stroke-width:23.275;stroke-miterlimit:4;stroke-dasharray:none;stroke-opacity:1" /><g
     id="g10057"
     transform="matrix(0.85704922,0,0,0.85704922,36.595405,36.595404)"><path
       id="rect9993"
       style="fill:#8888c6;fill-opacity:1;stroke:#8888c6;stroke-width:67.5712;stroke-opacity:1"
       d="m 213.0944,201.00543 c -5.0115,3.72338 -9.4966,8.0821 -13.33648,12.95127 v 84.0866 c 3.83984,4.86906 8.32507,9.22796 13.33648,12.95127 h 85.81279 c 5.01112,-3.72313 9.49518,-8.08251 13.33488,-12.95127 v -84.0882 c -3.83959,-4.86847 -8.32399,-9.22672 -13.33488,-12.94967 z" /><g
       id="g10052"><path
         d="m 255.99999,150.41201 c -59.73129,0 -108.32695,47.36695 -108.32695,105.58799 0,58.22103 48.59566,105.58798 108.32695,105.58798 59.7313,0 108.32696,-47.36695 108.32696,-105.58798 0,-58.22104 -48.59566,-105.58799 -108.32696,-105.58799 z m 0,190.05778 c -47.79336,0 -86.66095,-37.88485 -86.66095,-84.46979 0,-46.58495 38.86759,-84.4698 86.66095,-84.4698 47.79337,0 86.66096,37.88485 86.66096,84.4698 0,46.58494 -38.86759,84.46979 -86.66096,84.46979 z"
         id="path1577"
         inkscape:connector-curvature="0"
         style="fill:#8888c6;fill-opacity:1;stroke:#8888c6;stroke-width:11.0007;stroke-miterlimit:4;stroke-dasharray:none;stroke-opacity:1" /></g></g></g>
<g
   id="g1585"
   transform="translate(-6.6814869,-500.02344)">
</g>
<g
   id="g1587"
   transform="translate(-6.6814869,-500.02344)">
</g>
<g
   id="g1589"
   transform="translate(-6.6814869,-500.02344)">
</g>
<g
   id="g1591"
   transform="translate(-6.6814869,-500.02344)">
</g>
<g
   id="g1593"
   transform="translate(-6.6814869,-500.02344)">
</g>
<g
   id="g1595"
   transform="translate(-6.6814869,-500.02344)">
</g>
<g
   id="g1597"
   transform="translate(-6.6814869,-500.02344)">
</g>
<g
   id="g1599"
   transform="translate(-6.6814869,-500.02344)">
</g>
<g
   id="g1601"
   transform="translate(-6.6814869,-500.02344)">
</g>
<g
   id="g1603"
   transform="translate(-6.6814869,-500.02344)">
</g>
<g
   id="g1605"
   transform="translate(-6.6814869,-500.02344)">
</g>
<g
   id="g1607"
   transform="translate(-6.6814869,-500.02344)">
</g>
<g
   id="g1609"
   transform="translate(-6.6814869,-500.02344)">
</g>
<g
   id="g1611"
   transform="translate(-6.6814869,-500.02344)">
</g>
<g
   id="g1613"
   transform="translate(-6.6814869,-500.02344)">
</g>
</svg>
