<?xml version="1.0" encoding="UTF-8" standalone="no"?>
<svg
   xmlns:dc="http://purl.org/dc/elements/1.1/"
   xmlns:cc="http://creativecommons.org/ns#"
   xmlns:rdf="http://www.w3.org/1999/02/22-rdf-syntax-ns#"
   xmlns:svg="http://www.w3.org/2000/svg"
   xmlns="http://www.w3.org/2000/svg"
   xmlns:sodipodi="http://sodipodi.sourceforge.net/DTD/sodipodi-0.dtd"
   xmlns:inkscape="http://www.inkscape.org/namespaces/inkscape"
   height="512"
   viewBox="0 0 383.99999 383.99999"
   width="512"
   version="1.1"
   id="svg5741"
   sodipodi:docname="app_actions.svg"
   inkscape:version="1.0.1 (3bc2e813f5, 2020-09-07)">
  <metadata
     id="metadata5747">
    <rdf:RDF>
      <cc:Work
         rdf:about="">
        <dc:format>image/svg+xml</dc:format>
        <dc:type
           rdf:resource="http://purl.org/dc/dcmitype/StillImage" />
        <dc:title></dc:title>
      </cc:Work>
    </rdf:RDF>
  </metadata>
  <defs
     id="defs5745" />
  <sodipodi:namedview
     pagecolor="#ffffff"
     bordercolor="#666666"
     borderopacity="1"
     objecttolerance="10"
     gridtolerance="10"
     guidetolerance="10"
     inkscape:pageopacity="0"
     inkscape:pageshadow="2"
     inkscape:window-width="1366"
     inkscape:window-height="739"
     id="namedview5743"
     showgrid="false"
     showborder="true"
     fit-margin-top="0"
     fit-margin-left="0"
     fit-margin-right="0"
     fit-margin-bottom="0"
     inkscape:zoom="0.55874063"
     inkscape:cx="193.97823"
     inkscape:cy="207.75395"
     inkscape:window-x="0"
     inkscape:window-y="0"
     inkscape:window-maximized="1"
     inkscape:current-layer="svg5741"
     showguides="false"
     inkscape:document-rotation="0"
     units="px" />
  <path
     d="m 332.86648,161.3768 h -104.1188 c -3.38413,0 -6.1245,-2.74281 -6.1245,-6.12448 V 51.133489 c 0,-16.911292 -13.71165,-30.622928 -30.62294,-30.622928 -16.91177,0 -30.62343,13.711636 -30.62343,30.622928 V 155.25232 c 0,3.38412 -2.74281,6.12448 -6.12448,6.12448 H 51.133508 c -16.91129,0 -30.622944,13.71167 -30.622944,30.62296 0,16.91177 13.711654,30.62344 30.622944,30.62344 H 155.25233 c 3.38411,0 6.12448,2.74281 6.12448,6.12448 v 104.11881 c 0,16.91128 13.71166,30.62294 30.62343,30.62294 16.91129,0 30.62294,-13.71166 30.62294,-30.62294 V 228.74768 c 0,-3.38413 2.74282,-6.12448 6.1245,-6.12448 h 104.1188 c 16.91129,0 30.62295,-13.71167 30.62295,-30.62295 0,-16.91178 -13.71166,-30.62345 -30.62295,-30.62345 z m 0,0"
     id="path5739"
     style="fill:none;fill-opacity:1;stroke:#91a069;stroke-width:36.9985;stroke-miterlimit:4;stroke-dasharray:none;stroke-opacity:1"
     inkscape:connector-curvature="0" />
</svg>
